<svg fill="none" height="64" viewBox="0 0 64 64" width="64" xmlns="http://www.w3.org/2000/svg"><rect fill="#fff" height="64" rx="8" width="64"/><circle cx="32" cy="32" fill="#fc521f" r="22"/><path clip-rule="evenodd" d="m37.1698 42.118-3.4959-2.0169 10.5171-6.0665c.403-.233.7828-.4995 1.1365-.7973 1.3669 1.9464 1.5013 4.5101.2826 6.6201-1.101 1.9047-3.1551 3.0879-5.358 3.0879-1.0779 0-2.1431-.2861-3.0823-.8273zm-.8423 1.4569c.4035.2333.824.429 1.2594.5865-1.0036 2.1557-3.1578 3.5527-5.5979 3.5527-3.4059 0-6.1783-2.7695-6.1783-6.1731v-12.1337l5.3362 3.0791v7.6142c0 .3006.1608.5785.4208.7287zm-12.5845-.631c-2.2035 0-4.2541-1.1821-5.3557-3.086-.824-1.4279-1.0444-3.0911-.6164-4.6846.4277-1.5936 1.4486-2.9249 2.8786-3.7491l3.4948-2.0164.0006 12.1311c0 .4654.0399.9271.1211 1.3837-.1741.0146-.349.0213-.523.0213zm13.5995-14.9936-5.3341 3.0775-6.5999-3.8067c-.1299-.0748-.2752-.1128-.4216-.1128-.1445 0-.2899.038-.4205.1128l-4.759 2.7456c-.4032.2316-.7841.4976-1.1378.7968-1.3664-1.9462-1.4998-4.5097-.2824-6.6205 1.1016-1.9044 3.1536-3.0886 5.3578-3.0886 1.0766 0 2.1423.2872 3.0823.8286zm-5.3533-11.6646c3.4075 0 6.1781 2.7696 6.1781 6.1744v4.0334l-10.5139-6.0654c-.4035-.2338-.8243-.4301-1.261-.588 1.0036-2.1566 3.1584-3.5544 5.5968-3.5544zm13.6213 7.8585c1.7023 2.9483.6883 6.7314-2.2625 8.4329l-10.5153 6.0667v-6.1561l6.5992-3.8072c.2608-.1503.4216-.4282.4216-.729v-5.4912c.0005-.4638-.0416-.926-.1211-1.3811.1727-.0151.3467-.0223.5213-.0223 2.2037 0 4.2563 1.1832 5.3568 3.0873z" fill="#fff" fill-rule="evenodd"/></svg>